<?xml version="1.0" encoding="utf-8"?>
<!-- Generator: Adobe Illustrator 24.0.1, SVG Export Plug-In . SVG Version: 6.00 Build 0)  -->
<svg version="1.1" id="Layer_1" xmlns="http://www.w3.org/2000/svg" xmlns:xlink="http://www.w3.org/1999/xlink" x="0px" y="0px"
	 viewBox="0 0 270 360" style="enable-background:new 0 0 270 360;" xml:space="preserve">
<style type="text/css">
	.st0{clip-path:url(#SVGID_2_);}
	.st1{fill-rule:evenodd;clip-rule:evenodd;fill:#FFFFFF;}
	.st2{fill:#1F645F;}
	.st3{fill:#20655F;}
	.st4{fill:#BE9639;}
	.st5{fill:#957541;}
</style>
<g>
	<g>
		<g>
			<defs>
				<rect id="SVGID_1_" x="0" y="0" width="270" height="360"/>
			</defs>
			<clipPath id="SVGID_2_">
				<use xlink:href="#SVGID_1_"  style="overflow:visible;"/>
			</clipPath>
			<g class="st0">
				<path class="st1" d="M0,360h270V0H0V360z"/>
			</g>
		</g>
	</g>
	<path class="st2" d="M112.5,83.3c-0.2,0-0.4-0.1-0.5-0.2c-0.1-0.1-0.2-0.3-0.2-0.5c0-0.2,0.1-0.4,0.2-0.5c0.1-0.1,0.3-0.2,0.5-0.2
		c0.2,0,0.4,0.1,0.5,0.2c0.1,0.1,0.2,0.3,0.2,0.5c0,0.2-0.1,0.4-0.2,0.5C112.9,83.3,112.7,83.3,112.5,83.3 M111.6,89.5
		c1.1,0,1.7-0.6,1.7-1.9c0-0.7-0.2-1.3-0.5-1.7c-0.3-0.4-0.7-0.6-1.3-0.6c-0.5,0-0.9,0.2-1.2,0.7c-0.3,0.4-0.5,1-0.5,1.7
		C109.9,88.9,110.5,89.5,111.6,89.5 M110.4,83.3c-0.2,0-0.3-0.1-0.5-0.2c-0.1-0.1-0.2-0.3-0.2-0.6s0.1-0.4,0.2-0.6
		c0.1-0.1,0.3-0.2,0.5-0.2c0.2,0,0.4,0.1,0.5,0.2c0.1,0.1,0.2,0.3,0.2,0.5c0,0.2-0.1,0.4-0.2,0.5C110.8,83.3,110.6,83.3,110.4,83.3
		 M111.6,90.4c-0.9,0-1.6-0.2-2-0.7c-0.5-0.5-0.7-1.2-0.7-2.1c0-0.6,0.1-1.1,0.4-1.6c0.2-0.5,0.6-0.9,1-1.2c0.4-0.3,0.9-0.4,1.4-0.4
		c0.5,0,1,0.2,1.4,0.4c0.4,0.3,0.8,0.7,1,1.2c0.2,0.5,0.4,1.1,0.4,1.6c0,0.9-0.2,1.6-0.7,2.1C113.2,90.2,112.5,90.4,111.6,90.4"/>
	<path class="st2" d="M115.7,89.4h2.7l-1.5-6.6h1.1l1.5,6.6h0.3c0.8,0,1.3-0.5,1.3-1.4v-6.8h1.1v6.9c0,0.7-0.2,1.2-0.6,1.6
		c-0.4,0.4-0.9,0.6-1.6,0.6h-4.2"/>
	<path class="st2" d="M128,89.4v-4h-0.5c-0.7,0-1.3,0.2-1.7,0.6c-0.4,0.4-0.6,0.9-0.6,1.6c0,0.6,0.1,1.1,0.4,1.4
		c0.3,0.3,0.7,0.4,1.2,0.4H128z M129,90.6c0,0.8-0.2,1.5-0.7,1.9c-0.5,0.5-1.2,0.7-2,0.7c-0.8,0-1.5-0.2-2.2-0.6l0.5-0.8
		c0.3,0.1,0.5,0.3,0.8,0.3c0.3,0.1,0.6,0.1,0.9,0.1c0.5,0,1-0.1,1.3-0.4c0.3-0.3,0.5-0.7,0.5-1.2v-0.3h-1.2c-0.8,0-1.5-0.2-2-0.7
		c-0.5-0.5-0.7-1.1-0.7-2c0-0.9,0.3-1.7,0.9-2.2c0.6-0.6,1.4-0.8,2.4-0.8h1.6v4.9h1c0,0,0.1,0,0.1,0v0.8c0,0,0,0.1-0.1,0.1h-1"/>
	<path class="st2" d="M129.8,90.3C129.8,90.3,129.8,90.3,129.8,90.3l-0.1-0.9c0,0,0,0,0.1,0h1.6v-8.2h1.1v9.1"/>
	<path class="st2" d="M134.9,90.3h1.1v-9.1h-1.1V90.3z"/>
	<path class="st2" d="M144.1,90.3v0.3c0,0.8-0.2,1.4-0.5,1.9c-0.4,0.5-0.9,0.7-1.6,0.7c-0.4,0-0.8-0.1-1.2-0.3L141,92
		c0.2,0.1,0.4,0.1,0.5,0.2c0.1,0,0.3,0,0.4,0c0.4,0,0.6-0.1,0.8-0.4c0.2-0.3,0.3-0.7,0.3-1.2v-6.2h1v4.9h1.5c0,0,0.1,0,0.1,0v0.8
		c0,0,0,0.1-0.1,0.1"/>
	<path class="st2" d="M153,89.4v-1.9c0-0.7-0.2-1.3-0.5-1.6c-0.3-0.3-0.8-0.5-1.5-0.5c-1.2,0-2.3,1-3.1,3.1v1H153z M145.4,90.3
		C145.4,90.3,145.4,90.3,145.4,90.3l-0.1-0.9c0,0,0,0,0.1,0h1.5v-4.5h1v2.2c0.4-0.9,0.8-1.6,1.4-2c0.6-0.5,1.2-0.7,1.9-0.7
		c0.9,0,1.6,0.2,2,0.7c0.5,0.5,0.7,1.3,0.7,2.3v2h1.6c0,0,0.1,0,0.1,0v0.8c0,0,0,0.1-0.1,0.1"/>
	<path class="st2" d="M155.4,90.3C155.4,90.3,155.4,90.3,155.4,90.3l-0.1-0.9c0,0,0,0,0.1,0h1.8c-0.3-0.2-0.5-0.5-0.6-0.9
		c-0.2-0.4-0.2-0.8-0.2-1.2c0-0.9,0.3-1.6,0.8-2.1c0.5-0.5,1.2-0.8,2.1-0.8c0.3,0,0.7,0,0.9,0.1c0.3,0.1,0.5,0.2,0.7,0.2l-0.3,0.9
		c-0.5-0.2-1-0.3-1.4-0.3c-1.1,0-1.7,0.7-1.7,2c0,0.6,0.1,1.1,0.4,1.5c0.3,0.4,0.6,0.6,1.1,0.6h2.1v0.9"/>
	<path class="st2" d="M99.3,328.1c-0.2,0-0.3-0.1-0.4-0.2c-0.1-0.1-0.2-0.3-0.2-0.5c0-0.2,0.1-0.3,0.2-0.5c0.1-0.1,0.2-0.2,0.4-0.2
		c0.2,0,0.3,0.1,0.4,0.2c0.1,0.1,0.1,0.3,0.1,0.4c0,0.2,0,0.3-0.1,0.4C99.6,328,99.5,328.1,99.3,328.1 M101.9,333
		c0,0.8-0.2,1.4-0.6,1.8c-0.4,0.4-1,0.6-1.9,0.6h-0.7c-0.6,0-1.1-0.2-1.5-0.7s-0.5-1-0.5-1.8c0-0.8,0.1-1.6,0.4-2.2h0.8
		c-0.2,0.6-0.3,1.3-0.3,2.2c0,0.5,0.1,1,0.3,1.3c0.2,0.3,0.6,0.4,1,0.4h0.5c0.6,0,1-0.1,1.3-0.4c0.3-0.3,0.4-0.7,0.4-1.2v-4.9h0.9
		v4.1h1.1c0,0,0.1,0,0.1,0v0.7c0,0,0,0-0.1,0"/>
	<path class="st2" d="M105.9,335c-0.2,0-0.3-0.1-0.4-0.2c-0.1-0.1-0.2-0.3-0.2-0.5c0-0.2,0.1-0.3,0.2-0.4c0.1-0.1,0.2-0.2,0.4-0.2
		c0.2,0,0.3,0.1,0.4,0.2c0.1,0.1,0.1,0.3,0.1,0.4c0,0.2,0,0.3-0.1,0.4C106.2,334.9,106.1,335,105.9,335 M104.2,335
		c-0.2,0-0.3,0-0.4-0.1c-0.1-0.1-0.2-0.3-0.2-0.5c0-0.2,0.1-0.4,0.2-0.5c0.1-0.1,0.2-0.1,0.4-0.1c0.2,0,0.3,0.1,0.4,0.2
		c0.1,0.1,0.2,0.3,0.2,0.5c0,0.2-0.1,0.3-0.2,0.5C104.5,334.9,104.3,335,104.2,335 M102.9,333C102.9,333,102.9,333,102.9,333l0-0.8
		c0,0,0,0,0,0h1.6v-4.1h0.9v4.1h1.5c0,0,0,0,0,0v0.7c0,0,0,0,0,0"/>
	<path class="st2" d="M113.5,333c-0.3,0-0.6-0.1-0.8-0.2c-0.3-0.1-0.5-0.3-0.8-0.6c-0.1,0.2-0.3,0.4-0.6,0.5
		c-0.2,0.1-0.5,0.2-0.9,0.2h-3.5c0,0,0,0,0,0v-0.7c0,0,0,0,0,0h1.4v-3.3h0.9v3.3h1.1c0.3,0,0.6-0.1,0.8-0.3c0.2-0.2,0.3-0.5,0.3-0.8
		v-2.2h0.9v2.4l0,0.1c0.2,0.3,0.4,0.5,0.5,0.6c0.2,0.1,0.5,0.2,0.8,0.2h0.6v-4.1h0.9v4.1h1.3c0,0,0.1,0,0.1,0v0.7c0,0,0,0-0.1,0"/>
	<path class="st2" d="M116.2,333C116.1,333,116.1,333,116.2,333l0-0.8c0,0,0,0,0,0h4.3c-0.2-0.2-0.5-0.9-0.6-1.9
		c-0.1-0.6-0.2-1-0.4-1.2c-0.2-0.2-0.5-0.4-0.8-0.4c-0.5,0-1,0.1-1.5,0.4l-0.3-0.7c0.3-0.2,0.6-0.3,0.9-0.4c0.3-0.1,0.6-0.1,0.9-0.1
		c0.4,0,0.8,0.1,1,0.2c0.3,0.1,0.5,0.4,0.7,0.7c0.2,0.3,0.3,0.7,0.4,1.3c0.1,0.6,0.2,1.1,0.3,1.4c0.1,0.3,0.3,0.6,0.4,0.7v0.8"/>
	<path class="st2" d="M131.4,333c0,0.8-0.2,1.4-0.6,1.8c-0.4,0.4-1,0.6-1.9,0.6h-0.7c-0.6,0-1.1-0.2-1.5-0.7
		c-0.4-0.5-0.5-1.1-0.5-1.9c0-0.4,0-0.8,0.1-1.3c0.1-0.4,0.2-0.8,0.3-1.1h0.8c-0.2,0.6-0.3,1.4-0.3,2.4c0,0.6,0.1,1,0.3,1.3
		c0.2,0.3,0.6,0.5,1,0.5h0.5c0.6,0,1-0.1,1.3-0.4c0.3-0.3,0.4-0.7,0.4-1.2v-7.7h0.9v6.9h1.1c0,0,0.1,0,0.1,0v0.7c0,0,0,0-0.1,0"/>
	<path class="st2" d="M134.2,330.3c0,0.3,0,0.6,0.1,0.9c0.1,0.3,0.2,0.6,0.3,1h0.7c0.4,0,0.8-0.2,1-0.5c0.2-0.3,0.4-0.8,0.4-1.3
		c0-0.4-0.1-0.8-0.3-1s-0.5-0.4-0.8-0.4c-0.2,0-0.4,0-0.6,0.1c-0.2,0.1-0.4,0.2-0.5,0.3c-0.1,0.1-0.1,0.3-0.1,0.4
		C134.2,329.9,134.2,330.1,134.2,330.3 M132.5,333C132.4,333,132.4,333,132.5,333l0-0.8c0,0,0,0,0,0h1.3c-0.2-0.7-0.4-1.2-0.4-1.7
		c0-0.6,0.1-1.1,0.4-1.6c0.2-0.2,0.5-0.4,0.8-0.5c0.3-0.1,0.7-0.2,1-0.2c0.4,0,0.8,0.1,1.1,0.3c0.3,0.2,0.6,0.5,0.7,0.8
		c0.2,0.3,0.3,0.7,0.3,1.2c0,0.5-0.1,1-0.3,1.4c-0.2,0.4-0.5,0.7-0.8,0.9c-0.4,0.2-0.8,0.3-1.2,0.3"/>
	<path class="st2" d="M139.3,325.3h0.9v6.9h1.3c0,0,0.1,0,0.1,0v0.7c0,0,0,0-0.1,0h-2.2"/>
	<path class="st2" d="M141.4,333C141.4,333,141.4,333,141.4,333l-0.1-0.8c0,0,0,0,0.1,0h4.2v-1.9c0-0.5-0.2-0.9-0.5-1.1
		c-0.3-0.2-0.8-0.4-1.4-0.4h-1.7V328c0.2-0.5,0.5-0.9,0.9-1.3c0.4-0.4,0.8-0.8,1.3-1.2c0.5-0.3,0.9-0.6,1.4-0.8l0.3,0.8
		c-0.6,0.2-1.2,0.6-1.8,1.1c-0.6,0.5-1,1-1.2,1.5h0.9c0.9,0,1.6,0.2,2,0.5c0.5,0.4,0.7,0.9,0.7,1.6v2.8"/>
	<path class="st2" d="M151.2,332.2h3.4c-0.1-0.9-0.4-1.7-0.8-2.3c-0.4-0.6-0.9-1.2-1.6-1.7l0.3-0.8c0.8,0.4,1.4,1,1.9,1.8
		c0.5,0.8,0.8,1.8,1,2.9h1.1c0,0,0.1,0,0.1,0v0.7c0,0,0,0-0.1,0h-5.3"/>
	<path class="st2" d="M158.2,330.3c0,0.3,0,0.6,0.1,0.9c0.1,0.3,0.2,0.6,0.3,1h0.7c0.4,0,0.8-0.2,1-0.5c0.2-0.3,0.4-0.8,0.4-1.3
		c0-0.4-0.1-0.8-0.3-1c-0.2-0.3-0.5-0.4-0.8-0.4c-0.2,0-0.4,0-0.6,0.1c-0.2,0.1-0.4,0.2-0.5,0.3c-0.1,0.1-0.1,0.3-0.1,0.4
		C158.2,329.9,158.2,330.1,158.2,330.3 M156.4,333C156.4,333,156.4,333,156.4,333l0-0.8c0,0,0,0,0,0h1.3c-0.2-0.7-0.4-1.2-0.4-1.7
		c0-0.6,0.1-1.1,0.4-1.6c0.2-0.2,0.5-0.4,0.8-0.5c0.3-0.1,0.7-0.2,1-0.2c0.4,0,0.8,0.1,1.1,0.3c0.3,0.2,0.6,0.5,0.7,0.8
		c0.2,0.3,0.3,0.7,0.3,1.2c0,0.4-0.1,0.8-0.2,1.2c0.1,0.2,0.3,0.4,0.5,0.5c0.2,0.1,0.4,0.1,0.7,0.1h0c0,0,0.1,0,0.1,0v0.7
		c0,0,0,0-0.1,0h0c-0.4,0-0.7,0-0.9-0.1c-0.3-0.1-0.5-0.3-0.7-0.5c-0.2,0.2-0.5,0.4-0.7,0.5c-0.3,0.1-0.6,0.2-0.9,0.2"/>
	<path class="st2" d="M162.5,333C162.5,333,162.5,333,162.5,333l0-0.8c0,0,0,0,0,0h4.3c-0.3-0.3-0.5-0.9-0.6-1.9
		c-0.1-0.6-0.2-1-0.4-1.2c-0.2-0.2-0.5-0.4-0.8-0.4c-0.5,0-1,0.1-1.5,0.4l-0.4-0.7c0.3-0.2,0.6-0.3,0.9-0.4c0.3-0.1,0.6-0.1,0.9-0.1
		c0.4,0,0.8,0.1,1,0.2c0.3,0.1,0.5,0.4,0.7,0.7c0.2,0.3,0.3,0.7,0.4,1.3c0.2,1.1,0.4,1.8,0.7,2.1h0.7c0,0,0,0,0,0v0.7c0,0,0,0,0,0"
		/>
	<path class="st2" d="M170.1,330.3c0,0.3,0,0.6,0.1,0.9c0.1,0.3,0.2,0.6,0.3,1h0.7c0.4,0,0.8-0.2,1-0.5c0.2-0.3,0.4-0.8,0.4-1.3
		c0-0.4-0.1-0.8-0.3-1s-0.5-0.4-0.8-0.4c-0.2,0-0.4,0-0.6,0.1c-0.2,0.1-0.4,0.2-0.5,0.3c-0.1,0.1-0.1,0.3-0.1,0.4
		C170.1,329.9,170.1,330.1,170.1,330.3 M168.3,333C168.3,333,168.3,333,168.3,333l0-0.8c0,0,0,0,0,0h1.3c-0.2-0.7-0.4-1.2-0.4-1.7
		c0-0.6,0.1-1.1,0.4-1.6c0.2-0.2,0.5-0.4,0.8-0.5c0.3-0.1,0.7-0.2,1-0.2c0.4,0,0.8,0.1,1.1,0.3c0.3,0.2,0.6,0.5,0.7,0.8
		c0.2,0.3,0.3,0.7,0.3,1.2c0,0.5-0.1,1-0.3,1.4c-0.2,0.4-0.5,0.7-0.8,0.9c-0.4,0.2-0.8,0.3-1.2,0.3"/>
	<path class="st2" d="M54.4,43.8c-0.4,0-0.7-0.1-0.9-0.3c-0.2-0.2-0.3-0.6-0.3-1c0-0.4,0.1-0.8,0.3-1c0.2-0.2,0.5-0.3,0.9-0.3
		c0.4,0,0.7,0.1,0.9,0.4c0.2,0.2,0.3,0.6,0.3,1c0,0.4-0.1,0.7-0.3,1C55.1,43.6,54.8,43.8,54.4,43.8 M50.6,43.8
		c-0.3,0-0.6-0.1-0.9-0.3c-0.2-0.2-0.4-0.5-0.4-1c0-0.5,0.1-0.8,0.4-1c0.2-0.2,0.5-0.3,0.9-0.3c0.4,0,0.7,0.1,0.9,0.3
		c0.2,0.2,0.3,0.6,0.3,1c0,0.4-0.1,0.8-0.3,1C51.3,43.6,51,43.8,50.6,43.8 M53.6,56.2v-7.3h-1.4c-1.3,0-2.4,0.3-3.1,1
		c-0.7,0.7-1.1,1.6-1.1,2.9c0,1.1,0.3,2,0.9,2.5c0.6,0.6,1.5,0.9,2.7,0.9H53.6z M51.7,58c-1.8,0-3.2-0.5-4.1-1.3
		c-1-0.9-1.5-2.2-1.5-3.8c0-1.7,0.5-3.1,1.6-4.1c1.1-1,2.6-1.5,4.4-1.5h1.5v-1.4h1.9v10.4H58c0.1,0,0.1,0,0.1,0.1v1.5
		c0,0.1,0,0.1-0.1,0.1"/>
	<path class="st2" d="M64.4,62.4c-0.4,0-0.7-0.1-0.9-0.3c-0.2-0.2-0.3-0.6-0.3-1c0-0.4,0.1-0.8,0.3-1c0.2-0.2,0.5-0.3,0.9-0.3
		c0.4,0,0.7,0.1,0.9,0.4c0.2,0.2,0.3,0.6,0.3,1c0,0.4-0.1,0.7-0.3,1C65.1,62.3,64.8,62.4,64.4,62.4 M60.5,62.4
		c-0.3,0-0.6-0.1-0.9-0.3c-0.2-0.2-0.4-0.5-0.4-1c0-0.5,0.1-0.8,0.4-1c0.2-0.2,0.5-0.3,0.9-0.3c0.4,0,0.7,0.1,0.9,0.3
		c0.2,0.2,0.3,0.6,0.3,1c0,0.4-0.1,0.8-0.3,1C61.2,62.3,60.9,62.4,60.5,62.4 M57.8,58c-0.1,0-0.1,0-0.1-0.1v-1.5
		c0-0.1,0-0.1,0.1-0.1h3.6v-9h2v9h3.3c0.1,0,0.1,0,0.1,0.1v1.5c0,0.1,0,0.1-0.1,0.1"/>
	<path class="st2" d="M70.4,52.1c0,0.7,0.1,1.4,0.2,2c0.1,0.7,0.3,1.4,0.7,2.2h1.6c1,0,1.7-0.3,2.3-1c0.5-0.7,0.8-1.6,0.8-2.9
		c0-0.9-0.3-1.7-0.8-2.3c-0.5-0.6-1.1-0.9-1.9-0.9c-0.5,0-0.9,0.1-1.4,0.2c-0.5,0.2-0.9,0.4-1.2,0.7c-0.1,0.3-0.2,0.6-0.2,0.9
		C70.4,51.3,70.4,51.7,70.4,52.1 M66.5,58c-0.1,0-0.1,0-0.1-0.1v-1.5c0-0.1,0-0.1,0.1-0.1h2.7c-0.5-1.4-0.8-2.7-0.8-3.8
		c0-1.3,0.3-2.5,0.8-3.5c0.5-0.5,1.2-0.8,1.9-1.1c0.7-0.3,1.4-0.4,2.2-0.4c0.9,0,1.7,0.2,2.4,0.6c0.7,0.4,1.2,1,1.6,1.7
		c0.4,0.8,0.6,1.6,0.6,2.6c0,1.2-0.2,2.2-0.6,3c-0.4,0.8-1,1.5-1.8,1.9c-0.8,0.5-1.6,0.7-2.6,0.7"/>
	<path class="st2" d="M80.3,56.2h5l-2.9-12.1h2.1l2.9,12.1h3V41.1h2v15.1h2.9c0.1,0,0.1,0,0.1,0.1v1.5c0,0.1,0,0.1-0.1,0.1H80.3"/>
	<path class="st2" d="M109.3,58c-0.7,0-1.3-0.1-1.8-0.3c-0.6-0.2-1.1-0.6-1.7-1.2c-0.3,0.5-0.8,0.8-1.3,1.1
		c-0.5,0.3-1.2,0.4-1.9,0.4h-7.6c-0.1,0-0.1,0-0.1-0.1v-1.5c0-0.1,0-0.1,0.1-0.1H98v-7.3h1.9v7.3h2.4c0.7,0,1.3-0.2,1.7-0.7
		c0.4-0.5,0.6-1.1,0.6-1.9v-4.7h1.9v5.3l0,0.2c0.4,0.6,0.8,1.1,1.2,1.3c0.4,0.3,1,0.4,1.7,0.4h1.4v-9h1.9V58"/>
	<path class="st2" d="M119.5,63.7l1-0.2c-0.2-0.1-0.4-0.3-0.5-0.6c-0.2-0.2-0.2-0.5-0.2-0.8c0-0.6,0.2-1.1,0.6-1.5
		c0.4-0.4,1-0.5,1.7-0.5c0.6,0,1.1,0.1,1.5,0.3l-0.3,1c-0.3-0.2-0.7-0.3-1.1-0.3c-0.3,0-0.6,0.1-0.8,0.3c-0.2,0.2-0.3,0.5-0.3,0.9
		c0,0.5,0.2,0.8,0.7,1c0.1,0,0.5-0.1,1.1-0.2c0.6-0.1,1-0.1,1.1-0.1v1.1c-0.3,0-1,0.1-2.1,0.2c-1.1,0.1-1.8,0.2-2.2,0.3V63.7z
		 M115.4,56.2h5l-2.9-12.1h2.1l2.9,12.1h0.6c1.6,0,2.3-0.9,2.3-2.6V41.1h2v12.8c0,1.2-0.4,2.2-1.1,2.9c-0.7,0.7-1.7,1.1-3,1.1h-7.8"
		/>
	<path class="st2" d="M131.5,58h2V41.1h-2V58z"/>
	<path class="st2" d="M148.6,58v0.5c0,1.5-0.3,2.7-1,3.5c-0.7,0.9-1.7,1.3-2.9,1.3c-0.7,0-1.5-0.2-2.3-0.6l0.6-1.5
		c0.4,0.2,0.7,0.3,0.9,0.3c0.2,0,0.5,0.1,0.8,0.1c0.7,0,1.2-0.3,1.6-0.8s0.6-1.3,0.6-2.1V47.2h1.9v9h2.7c0.1,0,0.1,0,0.1,0.1v1.5
		c0,0.1,0,0.1-0.1,0.1"/>
	<path class="st2" d="M165,56.2v-3.5c0-1.4-0.3-2.4-0.9-3c-0.6-0.6-1.5-1-2.7-1c-2.3,0-4.2,1.9-5.7,5.7v1.8H165z M151.1,58
		c-0.1,0-0.1,0-0.1-0.1v-1.5c0-0.1,0-0.1,0.1-0.1h2.7v-8.4h1.9V52c0.7-1.7,1.6-2.9,2.6-3.7c1-0.8,2.2-1.3,3.5-1.3
		c1.7,0,2.9,0.5,3.8,1.4c0.9,0.9,1.3,2.3,1.3,4.3v3.6h2.9c0.1,0,0.1,0,0.1,0.1v1.5c0,0.1,0,0.1-0.1,0.1"/>
	<path class="st2" d="M173.5,52.1c0,0.7,0.1,1.4,0.2,2c0.1,0.7,0.3,1.4,0.7,2.2h1.6c1,0,1.7-0.3,2.3-1c0.5-0.7,0.8-1.6,0.8-2.9
		c0-0.9-0.3-1.7-0.8-2.3c-0.5-0.6-1.1-0.9-1.9-0.9c-0.5,0-0.9,0.1-1.4,0.2c-0.4,0.2-0.9,0.4-1.2,0.7c-0.1,0.3-0.2,0.6-0.2,0.9
		C173.5,51.3,173.5,51.7,173.5,52.1 M169.6,58c-0.1,0-0.1,0-0.1-0.1v-1.5c0-0.1,0-0.1,0.1-0.1h2.7c-0.5-1.4-0.8-2.7-0.8-3.8
		c0-1.3,0.3-2.5,0.8-3.5c0.5-0.5,1.2-0.8,1.9-1.1c0.7-0.3,1.4-0.4,2.2-0.4c0.9,0,1.7,0.2,2.4,0.6c0.7,0.4,1.2,1,1.6,1.7
		c0.4,0.8,0.6,1.6,0.6,2.6c0,1.2-0.2,2.2-0.6,3c-0.4,0.8-1,1.5-1.8,1.9c-0.8,0.5-1.6,0.7-2.6,0.7"/>
	<path class="st2" d="M199.1,62.4c-0.4,0-0.7-0.1-0.9-0.3c-0.2-0.2-0.3-0.6-0.3-1c0-0.4,0.1-0.8,0.3-1c0.2-0.2,0.5-0.3,0.9-0.3
		c0.4,0,0.7,0.1,0.9,0.4c0.2,0.2,0.3,0.6,0.3,1c0,0.4-0.1,0.7-0.3,1C199.8,62.3,199.5,62.4,199.1,62.4 M195.5,58
		c-1.3,0-2.3-0.4-3-1.2c-0.7-0.8-1.1-1.8-1.1-3.1c0-0.5,0.1-1.1,0.2-1.7c0.1-0.6,0.2-1.2,0.4-1.6h1.8c-0.2,1.1-0.3,2.1-0.3,3.2
		c0,0.8,0.2,1.5,0.6,2c0.4,0.5,0.9,0.8,1.5,0.8h7.9v-9h1.9V58"/>
	<path class="st2" d="M208.1,56.2h7.4c-0.3-2-0.8-3.7-1.7-5.1c-0.8-1.4-2-2.6-3.5-3.6l0.7-1.7c1.7,0.9,3.1,2.2,4.2,4
		c1.1,1.7,1.8,3.9,2.2,6.5V58h-9.3"/>
	<path class="st2" d="M220.6,42.4h2V58h-2V42.4z M219.4,40.3l1-0.2c-0.5-0.3-0.8-0.8-0.8-1.4c0-0.6,0.2-1.1,0.6-1.5
		c0.4-0.3,1-0.5,1.6-0.5c0.6,0,1.1,0.1,1.5,0.3l-0.3,1c-0.3-0.2-0.7-0.3-1.1-0.3c-0.3,0-0.6,0.1-0.8,0.3c-0.2,0.2-0.3,0.5-0.3,0.9
		c0,0.3,0.1,0.5,0.2,0.6c0.1,0.2,0.3,0.3,0.5,0.4c0.1,0,0.5-0.1,1.1-0.2c0.6-0.1,0.9-0.1,1.2-0.1v1.1c-0.1,0-0.4,0-0.8,0.1
		c-0.4,0-1.2,0.1-2.3,0.3l-1.2,0.2"/>
	<g>
		<path id="XMLID_481_" class="st3" d="M146.8,232.8c-4.2,2.3-8.2,4.9-12,7.8h0c-3.8-2.9-7.8-5.4-12-7.7
			c-12.1-6.6-25.7-10.9-40.1-12.1h-9.2c0-0.1,0-0.3,0.1-0.4c0.7-3.7,2.1-7.6,4.6-11.6c4.9-8,13.9-14.8,23.3-21.3
			c14.8-10.3,30.6-19.9,32.4-32.9l0-0.2c0.1-0.8,0.2-1.5,0.2-2.4l0.5-1.9l0.2-0.9l0.2,0.9l0.4,1.9c0,0.8,0.1,1.6,0.2,2.4l0,0.5
			c2,12.9,17.7,22.4,32.5,32.7c9.3,6.5,18.3,13.2,23.2,21.2c2.5,4,3.9,8,4.6,11.6c0,0.1,0.1,0.3,0.1,0.4h-9.1
			C172.4,222,158.9,226.2,146.8,232.8z"/>
		<path id="XMLID_475_" class="st4" d="M228.1,249.4c-5-0.8-10.1-1.2-15.3-1.2c-6.8,0-13.5,0.7-20,2c-1,0.2-2,0.4-3.1,0.7
			c-8.9,2-17.4,5.2-25.3,9.4c-4,2.1-7.9,4.6-11.6,7.3c-5.3-6.4-11.3-12.1-18-17c3.8-2.9,7.8-5.4,12-7.8
			c12.1-6.6,25.6-10.8,40.1-12.1h18.5c1.3,0.1,2.7,0.2,4,0.5c0.2,0,0.3,0,0.5,0L228.1,249.4z"/>
		<path class="st4" d="M209.8,231.1c-0.1,0-0.3-0.1-0.5,0c-1.3-0.2-2.6-0.4-4-0.5h-18.5c-14.5,1.3-28,5.5-40.1,12.1
			c-4.2,2.3-8.2,4.9-12,7.8h0c-3.8-2.9-7.8-5.4-12-7.7c-12.1-6.6-25.7-10.9-40.1-12.1H64c-1.3,0.1-2.7,0.2-4,0.5c-0.2,0-0.4,0-0.6,0
			l-18.1,18.1c4.9-0.7,10-1.1,15.1-1.1c6.9,0,13.6,0.7,20.2,2c1.1,0.2,2.1,0.4,3.2,0.7c8.9,2,17.4,5.3,25.3,9.4
			c4,2.1,7.8,4.6,11.5,7.3c4.3,3,8.3,6.4,12.1,10.1c2,2,4,4,5.9,6.2c0,0,0.1,0,0.1,0c1.8-2.2,3.8-4.2,5.8-6.2
			c3.8-3.7,7.9-7.2,12.2-10.2c3.7-2.7,7.6-5.1,11.6-7.3c7.9-4.2,16.4-7.3,25.3-9.4c1-0.2,2-0.5,3.1-0.7c6.5-1.3,13.2-2,20-2
			c5.2,0,10.3,0.4,15.3,1.2L209.8,231.1z"/>
		<path id="XMLID_1_" class="st5" d="M152.7,267.5c-4.3,3-8.4,6.5-12.2,10.2c-2,2-4,4-5.8,6.2c0,0,0,0-0.1,0
			c-1.9-2.2-3.8-4.3-5.9-6.2c-3.8-3.7-7.8-7.1-12.1-10.1c5.3-6.4,11.3-12.1,18-17.1h0C141.4,255.4,147.4,261.1,152.7,267.5z"/>
		<g id="XMLID_459_">
			<g>
				<path id="XMLID_22_" class="st3" d="M138.7,149.5c-7,0-12.7-5.7-12.7-12.7c0-7,5.7-12.7,12.7-12.7c1.3,0,2.6,0.2,3.7,0.6
					c-2.3-1.5-5-2.4-8-2.4c-8,0-14.5,6.5-14.5,14.5c0,8,6.5,14.5,14.5,14.5c2.9,0,5.7-0.9,8-2.4C141.3,149.3,140,149.5,138.7,149.5z
					"/>
				<g id="XMLID_21_">
					<polygon class="st4" points="136.9,128.7 138.7,134.5 144.8,134.5 139.9,138.1 141.8,143.9 136.9,140.3 131.9,143.9 
						133.8,138.1 128.9,134.5 135,134.5 					"/>
				</g>
			</g>
		</g>
	</g>
</g>
</svg>
